<svg width="8" height="8" viewBox="0 0 8 8" fill="none" xmlns="http://www.w3.org/2000/svg">
<path d="M2.52632 0C1.8563 0 1.21372 0.266165 0.739941 0.739941C0.266165 1.21372 0 1.8563 0 2.52632V5.47368C0 6.1437 0.266165 6.78628 0.739941 7.26006C1.21372 7.73384 1.8563 8 2.52632 8H5.47368C6.1437 8 6.78628 7.73384 7.26006 7.26006C7.73384 6.78628 8 6.1437 8 5.47368V3.36842C8 3.25675 7.95564 3.14965 7.87668 3.07069C7.79771 2.99173 7.69062 2.94737 7.57895 2.94737H7.15789C7.04622 2.94737 6.93913 2.90301 6.86017 2.82404C6.7812 2.74508 6.73684 2.63799 6.73684 2.52632C6.73684 1.8563 6.47068 1.21372 5.9969 0.739941C5.52313 0.266165 4.88055 0 4.21053 0H2.52632ZM2.52632 2.10526H4.21053C4.44211 2.10526 4.63158 2.29474 4.63158 2.52632C4.63158 2.75789 4.44211 2.94737 4.21053 2.94737H2.52632C2.29474 2.94737 2.10526 2.75789 2.10526 2.52632C2.10526 2.29474 2.29474 2.10526 2.52632 2.10526ZM2.52632 5.05263H5.47368C5.70526 5.05263 5.89474 5.24211 5.89474 5.47368C5.89474 5.70526 5.70526 5.89474 5.47368 5.89474H2.52632C2.29474 5.89474 2.10526 5.70526 2.10526 5.47368C2.10526 5.24211 2.29474 5.05263 2.52632 5.05263Z" fill="#C1C1C1"/>
</svg>
