<svg width="8" height="9" viewBox="0 0 8 9" fill="none" xmlns="http://www.w3.org/2000/svg">
<path d="M1.00686 3.09888e-07C0.874703 -0.000107172 0.743823 0.0277455 0.621695 0.0819675C0.499567 0.136189 0.388583 0.215718 0.295082 0.316011C0.201582 0.416303 0.127398 0.535395 0.0767666 0.666482C0.0261355 0.79757 5.00016e-05 0.938084 0 1.08C0 1.67727 0.450667 2.17227 1.00571 2.17227C1.56152 2.17227 2.01257 1.67727 2.01257 1.08082C2.01267 0.938922 1.98673 0.798395 1.93623 0.667269C1.88574 0.536143 1.81167 0.416988 1.71827 0.316614C1.62487 0.21624 1.51397 0.136615 1.3919 0.0822885C1.26983 0.0279623 1.13899 2.69169e-07 1.00686 3.09888e-07ZM5.9181 2.86364C5.07276 2.86364 4.58933 3.33818 4.35695 3.81027H4.33257V2.99086H2.66667V9H4.40267V6.0255C4.40267 5.24168 4.45752 4.48405 5.36076 4.48405C6.25105 4.48405 6.264 5.37791 6.264 6.075V9H8V5.69945C8 4.08436 7.67657 2.86364 5.9181 2.86364ZM0.138286 2.99046V9H1.87543V2.99046H0.138286Z" fill="#C1C1C1"/>
</svg>
