<svg width="9" height="9" viewBox="0 0 9 9" fill="none" xmlns="http://www.w3.org/2000/svg">
<path d="M2.64641 0C1.19373 0 0 1.19209 0 2.64641V6.35359C0 7.80627 1.19209 9 2.64641 9H6.35359C7.80627 9 9 7.80791 9 6.35359V2.64682C9 1.19373 7.80791 0 6.35359 0H2.64641ZM2.64641 0.818182H6.35359C6.59377 0.817859 6.83165 0.864927 7.05361 0.956689C7.27556 1.04845 7.47723 1.18311 7.64706 1.35294C7.81689 1.52277 7.95155 1.72444 8.04331 1.94639C8.13507 2.16835 8.18214 2.40623 8.18182 2.64641V6.35359C8.18214 6.59377 8.13507 6.83165 8.04331 7.05361C7.95155 7.27556 7.81689 7.47723 7.64706 7.64706C7.47723 7.81689 7.27556 7.95155 7.05361 8.04331C6.83165 8.13507 6.59377 8.18214 6.35359 8.18182H2.64682C2.40661 8.18219 2.16868 8.13517 1.94668 8.04343C1.72467 7.95169 1.52296 7.81704 1.35308 7.64721C1.18321 7.47737 1.04852 7.27568 0.956728 7.0537C0.86494 6.83172 0.817859 6.5938 0.818182 6.35359V2.64682C0.817805 2.40661 0.864833 2.16868 0.956572 1.94668C1.04831 1.72467 1.18296 1.52296 1.35279 1.35308C1.52263 1.18321 1.72432 1.04852 1.9463 0.956728C2.16828 0.86494 2.4062 0.817859 2.64641 0.818182ZM6.91609 1.71327C6.86736 1.71306 6.81906 1.7225 6.774 1.74104C6.72893 1.75959 6.68799 1.78689 6.65353 1.82135C6.61907 1.85581 6.59178 1.89675 6.57323 1.94182C6.55468 1.98688 6.54524 2.03518 6.54545 2.08391C6.54545 2.29009 6.70991 2.45455 6.91609 2.45455C6.96486 2.45482 7.0132 2.44542 7.05831 2.42689C7.10342 2.40837 7.14441 2.38108 7.17892 2.34662C7.21342 2.31215 7.24075 2.27119 7.25933 2.2261C7.2779 2.181 7.28735 2.13268 7.28714 2.08391C7.28735 2.03514 7.2779 1.98681 7.25933 1.94172C7.24075 1.89663 7.21342 1.85567 7.17892 1.8212C7.14441 1.78674 7.10342 1.75945 7.05831 1.74093C7.0132 1.7224 6.96486 1.713 6.91609 1.71327ZM4.5 2.04545C3.15 2.04545 2.04545 3.15 2.04545 4.5C2.04545 5.85 3.15 6.95455 4.5 6.95455C5.85 6.95455 6.95455 5.85 6.95455 4.5C6.95455 3.15 5.85 2.04545 4.5 2.04545ZM4.5 2.86364C5.40941 2.86364 6.13636 3.59059 6.13636 4.5C6.13636 5.40941 5.40941 6.13636 4.5 6.13636C3.59059 6.13636 2.86364 5.40941 2.86364 4.5C2.86364 3.59059 3.59059 2.86364 4.5 2.86364Z" fill="#C1C1C1"/>
</svg>
