<svg width="10" height="8" viewBox="0 0 10 8" fill="none" xmlns="http://www.w3.org/2000/svg">
<path d="M10 0.949C9.62557 1.11213 9.22836 1.21898 8.82167 1.26598C9.24983 1.01366 9.57026 0.616847 9.72333 0.149381C9.32065 0.384238 8.88036 0.550075 8.42125 0.639814C8.13999 0.343895 7.77476 0.138104 7.37306 0.0491997C6.97137 -0.0397041 6.55178 -0.00760723 6.16887 0.141317C5.78595 0.29024 5.45743 0.549101 5.22601 0.884239C4.99458 1.21938 4.87098 1.61529 4.87125 2.02049C4.87125 2.17918 4.88917 2.33296 4.92542 2.48017C4.10938 2.44064 3.31096 2.23233 2.5822 1.86881C1.85344 1.5053 1.21069 0.994739 0.695833 0.370404C0.512907 0.678567 0.41696 1.02923 0.417917 1.38613C0.417917 2.0861 0.779167 2.70447 1.33083 3.06655C1.00498 3.05638 0.686358 2.96948 0.401667 2.81314V2.83897C0.401385 3.30528 0.565179 3.7573 0.865213 4.11821C1.16525 4.47913 1.58301 4.72666 2.0475 4.81875C1.74544 4.90027 1.42838 4.91234 1.12083 4.85401C1.25184 5.25518 1.50689 5.60605 1.85037 5.85763C2.19384 6.1092 2.60859 6.24891 3.03667 6.25724C2.6111 6.58597 2.12384 6.82889 1.60277 6.97208C1.0817 7.11527 0.537053 7.15592 0 7.09171C0.937718 7.68559 2.02948 8.00094 3.14458 8C6.91875 8 8.98292 4.9229 8.98292 2.25422C8.98292 2.16811 8.97958 2.07954 8.97625 1.99302C9.37731 1.70722 9.72389 1.35392 10 0.94941V0.949Z" fill="#C1C1C1"/>
</svg>
